<?xml version="1.0" encoding="UTF-8"?>
<svg width="22px" height="22px" viewBox="0 0 22 22" version="1.1" xmlns="http://www.w3.org/2000/svg" xmlns:xlink="http://www.w3.org/1999/xlink">
    <!-- Generator: Sketch 51.3 (57544) - http://www.bohemiancoding.com/sketch -->
    <title>alexa</title>
    <desc>Created with Sketch.</desc>
    <defs></defs>
    <g id="Page-1" stroke="none" stroke-width="1" fill="none" fill-rule="evenodd">
        <g id="icons-brands-trademarks" transform="translate(-1161.000000, -474.000000)" fill="#FFFFFF">
            <g id="Amazon" transform="translate(97.000000, 474.000000)">
                <path d="M1074.9272,0 C1068.8924,0 1064,4.8924 1064,10.9272 C1064,16.468 1068.1244,21.0452 1073.4704,21.7576 L1073.4704,19.5556 C1073.4704,18.9348 1073.0788,18.3768 1072.49,18.1792 C1069.4056,17.1432 1067.1992,14.1948 1067.2804,10.7428 C1067.3792,6.5404 1070.8028,3.236 1075.006,3.2788 C1079.1944,3.3208 1082.5764,6.7292 1082.5764,10.9272 C1082.5764,11.0228 1082.574,11.118 1082.5704,11.2128 C1082.5696,11.234 1082.5688,11.2556 1082.568,11.2768 C1082.564,11.3648 1082.5588,11.4524 1082.552,11.54 C1082.5496,11.5676 1082.5468,11.5952 1082.5444,11.6232 C1082.5392,11.684 1082.5328,11.7444 1082.526,11.8048 C1082.518,11.8736 1082.5092,11.9416 1082.4996,12.0096 C1082.4952,12.0408 1082.4912,12.072 1082.4864,12.1028 C1081.55,18.2716 1073.5152,21.7388 1073.4712,21.7576 C1073.9476,21.8212 1074.4336,21.8544 1074.9272,21.8544 C1080.962,21.8544 1085.8544,16.9624 1085.8544,10.9272 C1085.8544,4.8924 1080.962,0 1074.9272,0" id="alexa"></path>
            </g>
        </g>
    </g>
</svg>
